<mxfile host="app.diagrams.net" modified="2023-11-11T22:04:57.954Z" agent="Mozilla/5.0 (Windows NT 10.0; Win64; x64) AppleWebKit/537.36 (KHTML, like Gecko) Chrome/119.0.0.0 Safari/537.36" etag="nD0cFe0yr6reXIArrmdN" version="22.1.0" type="github">
  <diagram name="Página-1" id="X9oylRcK49WROUmbr2CK">
    <mxGraphModel dx="2261" dy="840" grid="1" gridSize="10" guides="1" tooltips="1" connect="1" arrows="1" fold="1" page="1" pageScale="1" pageWidth="827" pageHeight="1169" math="0" shadow="0">
      <root>
        <mxCell id="0" />
        <mxCell id="1" parent="0" />
        <mxCell id="jb5qOzCTOFwyLriMGtDh-3" style="edgeStyle=none;curved=1;rounded=0;orthogonalLoop=1;jettySize=auto;html=1;fontSize=12;startSize=8;endSize=8;" edge="1" parent="1" source="jb5qOzCTOFwyLriMGtDh-1" target="jb5qOzCTOFwyLriMGtDh-4">
          <mxGeometry relative="1" as="geometry">
            <mxPoint x="414" y="310" as="targetPoint" />
          </mxGeometry>
        </mxCell>
        <mxCell id="jb5qOzCTOFwyLriMGtDh-1" value="&lt;font style=&quot;vertical-align: inherit;&quot;&gt;&lt;font style=&quot;vertical-align: inherit;&quot;&gt;INICIO&lt;/font&gt;&lt;/font&gt;" style="ellipse;whiteSpace=wrap;html=1;fontSize=16;fillColor=#dae8fc;strokeColor=#6c8ebf;" vertex="1" parent="1">
          <mxGeometry x="-40" y="30" width="120" height="80" as="geometry" />
        </mxCell>
        <mxCell id="jb5qOzCTOFwyLriMGtDh-2" value="&lt;font style=&quot;vertical-align: inherit;&quot;&gt;&lt;font style=&quot;vertical-align: inherit;&quot;&gt;FIN&lt;/font&gt;&lt;/font&gt;" style="ellipse;whiteSpace=wrap;html=1;fontSize=16;fillColor=#dae8fc;strokeColor=#6c8ebf;" vertex="1" parent="1">
          <mxGeometry x="197" y="690" width="120" height="80" as="geometry" />
        </mxCell>
        <mxCell id="jb5qOzCTOFwyLriMGtDh-5" style="edgeStyle=none;curved=1;rounded=0;orthogonalLoop=1;jettySize=auto;html=1;fontSize=12;startSize=8;endSize=8;" edge="1" parent="1" source="jb5qOzCTOFwyLriMGtDh-4" target="jb5qOzCTOFwyLriMGtDh-6">
          <mxGeometry relative="1" as="geometry">
            <mxPoint x="414" y="420" as="targetPoint" />
          </mxGeometry>
        </mxCell>
        <mxCell id="jb5qOzCTOFwyLriMGtDh-4" value="num1, num2, res in" style="rounded=0;whiteSpace=wrap;html=1;fontSize=16;fillColor=#f8cecc;strokeColor=#b85450;" vertex="1" parent="1">
          <mxGeometry x="-40" y="170" width="120" height="60" as="geometry" />
        </mxCell>
        <mxCell id="jb5qOzCTOFwyLriMGtDh-6" value="&quot;escribe un numero&quot;" style="shape=document;whiteSpace=wrap;html=1;boundedLbl=1;fontSize=16;fillColor=#fff2cc;strokeColor=#d6b656;fontStyle=1" vertex="1" parent="1">
          <mxGeometry x="-40" y="300" width="120" height="80" as="geometry" />
        </mxCell>
        <mxCell id="jb5qOzCTOFwyLriMGtDh-13" style="edgeStyle=none;curved=1;rounded=0;orthogonalLoop=1;jettySize=auto;html=1;fontSize=12;startSize=8;endSize=8;" edge="1" parent="1" source="jb5qOzCTOFwyLriMGtDh-8" target="jb5qOzCTOFwyLriMGtDh-12">
          <mxGeometry relative="1" as="geometry" />
        </mxCell>
        <mxCell id="jb5qOzCTOFwyLriMGtDh-8" value="num1" style="shape=parallelogram;perimeter=parallelogramPerimeter;whiteSpace=wrap;html=1;fixedSize=1;fontSize=16;fillColor=#d5e8d4;strokeColor=#82b366;" vertex="1" parent="1">
          <mxGeometry x="-43" y="410" width="126" height="80" as="geometry" />
        </mxCell>
        <mxCell id="jb5qOzCTOFwyLriMGtDh-10" style="edgeStyle=none;curved=1;rounded=0;orthogonalLoop=1;jettySize=auto;html=1;entryX=0.483;entryY=0.9;entryDx=0;entryDy=0;entryPerimeter=0;fontSize=12;startSize=8;endSize=8;" edge="1" parent="1" source="jb5qOzCTOFwyLriMGtDh-8" target="jb5qOzCTOFwyLriMGtDh-6">
          <mxGeometry relative="1" as="geometry" />
        </mxCell>
        <mxCell id="jb5qOzCTOFwyLriMGtDh-12" value="1" style="ellipse;whiteSpace=wrap;html=1;aspect=fixed;fontSize=16;fillColor=#f8cecc;strokeColor=#b85450;" vertex="1" parent="1">
          <mxGeometry x="-20" y="570" width="80" height="80" as="geometry" />
        </mxCell>
        <mxCell id="jb5qOzCTOFwyLriMGtDh-22" style="edgeStyle=none;curved=1;rounded=0;orthogonalLoop=1;jettySize=auto;html=1;fontSize=12;startSize=8;endSize=8;" edge="1" parent="1" source="jb5qOzCTOFwyLriMGtDh-14" target="jb5qOzCTOFwyLriMGtDh-19">
          <mxGeometry relative="1" as="geometry" />
        </mxCell>
        <mxCell id="jb5qOzCTOFwyLriMGtDh-14" value="1" style="ellipse;whiteSpace=wrap;html=1;aspect=fixed;fontSize=16;fillColor=#f8cecc;strokeColor=#b85450;" vertex="1" parent="1">
          <mxGeometry x="220" y="10" width="80" height="80" as="geometry" />
        </mxCell>
        <mxCell id="jb5qOzCTOFwyLriMGtDh-19" value="&quot;escribe un numero&quot;" style="shape=document;whiteSpace=wrap;html=1;boundedLbl=1;fontSize=16;fillColor=#fff2cc;strokeColor=#d6b656;" vertex="1" parent="1">
          <mxGeometry x="200" y="120" width="120" height="80" as="geometry" />
        </mxCell>
        <mxCell id="jb5qOzCTOFwyLriMGtDh-24" style="edgeStyle=none;curved=1;rounded=0;orthogonalLoop=1;jettySize=auto;html=1;fontSize=12;startSize=8;endSize=8;" edge="1" parent="1" source="jb5qOzCTOFwyLriMGtDh-20" target="jb5qOzCTOFwyLriMGtDh-23">
          <mxGeometry relative="1" as="geometry" />
        </mxCell>
        <mxCell id="jb5qOzCTOFwyLriMGtDh-20" value="num2" style="shape=parallelogram;perimeter=parallelogramPerimeter;whiteSpace=wrap;html=1;fixedSize=1;fontSize=16;fillColor=#d5e8d4;strokeColor=#82b366;" vertex="1" parent="1">
          <mxGeometry x="194" y="230" width="126" height="80" as="geometry" />
        </mxCell>
        <mxCell id="jb5qOzCTOFwyLriMGtDh-21" style="edgeStyle=none;curved=1;rounded=0;orthogonalLoop=1;jettySize=auto;html=1;entryX=0.483;entryY=0.9;entryDx=0;entryDy=0;entryPerimeter=0;fontSize=12;startSize=8;endSize=8;" edge="1" parent="1" source="jb5qOzCTOFwyLriMGtDh-20" target="jb5qOzCTOFwyLriMGtDh-19">
          <mxGeometry relative="1" as="geometry" />
        </mxCell>
        <mxCell id="jb5qOzCTOFwyLriMGtDh-29" style="edgeStyle=none;curved=1;rounded=0;orthogonalLoop=1;jettySize=auto;html=1;fontSize=12;startSize=8;endSize=8;" edge="1" parent="1" source="jb5qOzCTOFwyLriMGtDh-23" target="jb5qOzCTOFwyLriMGtDh-28">
          <mxGeometry relative="1" as="geometry" />
        </mxCell>
        <mxCell id="jb5qOzCTOFwyLriMGtDh-23" value="num&quot; * &quot; num2 &lt;br&gt;&quot; = &quot;&amp;nbsp;" style="shape=document;whiteSpace=wrap;html=1;boundedLbl=1;fontSize=16;fillColor=#fff2cc;strokeColor=#d6b656;" vertex="1" parent="1">
          <mxGeometry x="200" y="340" width="120" height="80" as="geometry" />
        </mxCell>
        <mxCell id="jb5qOzCTOFwyLriMGtDh-26" style="edgeStyle=none;curved=1;rounded=0;orthogonalLoop=1;jettySize=auto;html=1;fontSize=12;startSize=8;endSize=8;" edge="1" parent="1" source="jb5qOzCTOFwyLriMGtDh-25" target="jb5qOzCTOFwyLriMGtDh-2">
          <mxGeometry relative="1" as="geometry" />
        </mxCell>
        <mxCell id="jb5qOzCTOFwyLriMGtDh-25" value="&quot;El resultado de la multiplicación es:&quot;" style="shape=document;whiteSpace=wrap;html=1;boundedLbl=1;fontSize=16;fillColor=#fff2cc;strokeColor=#d6b656;" vertex="1" parent="1">
          <mxGeometry x="197" y="585" width="120" height="80" as="geometry" />
        </mxCell>
        <mxCell id="jb5qOzCTOFwyLriMGtDh-30" style="edgeStyle=none;curved=1;rounded=0;orthogonalLoop=1;jettySize=auto;html=1;entryX=0.5;entryY=0;entryDx=0;entryDy=0;fontSize=12;startSize=8;endSize=8;" edge="1" parent="1" source="jb5qOzCTOFwyLriMGtDh-28" target="jb5qOzCTOFwyLriMGtDh-25">
          <mxGeometry relative="1" as="geometry" />
        </mxCell>
        <mxCell id="jb5qOzCTOFwyLriMGtDh-28" value="res" style="shape=parallelogram;perimeter=parallelogramPerimeter;whiteSpace=wrap;html=1;fixedSize=1;fontSize=16;fillColor=#d5e8d4;strokeColor=#82b366;" vertex="1" parent="1">
          <mxGeometry x="194" y="460" width="126" height="80" as="geometry" />
        </mxCell>
      </root>
    </mxGraphModel>
  </diagram>
</mxfile>
